PathFileType	4	(X/Y/Z)	G:\Shared drives\HIT\Data\HapticPilot\Subject1\Edited\walking_FB1_noFB1.trc
DataRate	CameraRate	NumFrames	NumMarkers	Units	OrigDataRate	OrigDataStartFrame	OrigNumFrames
50.00	50.00	      7	34	mm	50.00	1	      3148
Frame#	Time	r_knee			r_shank(antsup)			r_ankle			r_calc			r_5meta			r_toe			L_knee			L_shank(ant_sup)			L_ankle			L_calc			L_5meta			L_toe			r_sh2			r_sh3			r_sh4			L_sh2			L_sh3			r_thigh1			r_thigh2			r_thigh3			r_thigh4			r_thigh5			L_thigh1			L_thigh2			L_thigh3			L_thigh4			r.ASIS			r.PSIS			L.ASIS			L.PSIS			C7			R_Shoulder			L_Shoulder			Sternum			
		X1	Y1	Z1	X2	Y2	Z2	X3	Y3	Z3	X4	Y4	Z4	X5	Y5	Z5	X6	Y6	Z6	X7	Y7	Z7	X8	Y8	Z8	X9	Y9	Z9	X10	Y10	Z10	X11	Y11	Z11	X12	Y12	Z12	X13	Y13	Z13	X14	Y14	Z14	X15	Y15	Z15	X16	Y16	Z16	X17	Y17	Z17	X18	Y18	Z18	X19	Y19	Z19	X20	Y20	Z20	X21	Y21	Z21	X22	Y22	Z22	X23	Y23	Z23	X24	Y24	Z24	X25	Y25	Z25	X26	Y26	Z26	X27	Y27	Z27	X28	Y28	Z28	X29	Y29	Z29	X30	Y30	Z30	X31	Y31	Z31	X32	Y32	Z32	X33	Y33	Z33	X34	Y34	Z34	

1	0.000	982.26593	416.21268	571.29303	1006.14667	416.54895	481.44687	962.70166	459.81943	108.87051	878.11548	515.45557	69.44987	1071.78296	429.59250	40.25708	1114.22363	488.05704	78.00690	962.92877	724.96088	550.25476	919.12097	718.22253	439.34216	617.57739	704.57239	265.38254	543.97980	661.16455	314.94073	663.31354	653.48834	109.38453	615.10303	713.88068	120.13530	1006.67023	425.51443	361.71399	930.22687	413.62158	478.44388	922.55988	419.78613	362.90335	870.57837	738.84546	513.62128	776.10168	733.41254	435.89682	955.64624	375.27570	898.35876	989.85986	381.50449	788.21777	951.99066	380.24881	742.69885	848.54694	380.09238	860.26086	889.57324	395.45306	751.63525	987.80609	737.40277	827.20233	1025.14087	735.05896	693.53992	872.85126	739.20630	796.62915	916.08331	728.19305	666.95947	945.20978	430.98703	1088.87451	756.02844	523.68732	1094.28735	954.43732	685.22290	1077.64722	762.67206	605.25909	1087.31775	855.53748	569.21362	1591.31311	906.19049	400.20251	1550.88989	926.18170	747.71466	1543.16528	994.34631	561.92047	1507.23279	
2	0.020	970.01245	416.41980	571.52789	991.77515	417.25021	481.49200	938.71161	460.24094	109.22889	853.35706	514.84595	70.67030	1046.72900	429.47070	40.25832	1089.79822	487.95236	77.39827	982.53448	726.29675	559.18390	942.55756	719.48102	446.87631	646.37708	703.44159	262.87390	569.68762	661.23230	309.04617	701.08710	649.55591	111.29392	652.22601	710.17041	117.63299	989.75519	425.81451	361.68799	915.74933	413.06332	479.91293	905.66724	419.02737	364.83450	891.74176	740.44141	519.47144	799.65851	734.82819	438.68893	953.19885	376.06580	900.00073	985.06396	383.25180	788.17017	946.62500	379.67984	744.28394	845.23987	377.90695	863.57330	883.74084	393.01898	753.77509	995.02234	737.12787	835.81073	1038.47778	734.75885	704.08539	881.32452	739.05627	800.68317	929.90009	728.15845	672.99042	944.41803	429.44443	1091.63782	754.71210	521.50134	1097.84790	952.14410	683.86139	1083.14063	760.51691	602.93188	1091.12512	853.99548	566.77142	1595.10779	906.36121	398.49100	1553.26440	921.69312	746.78510	1546.72668	992.34949	561.52948	1510.44788	
3	0.040	954.70178	416.50543	570.97662	975.17700	417.25714	481.18939	914.23187	460.39615	109.77720	828.59674	515.05438	71.55583	1021.77765	429.35013	40.17323	1065.28613	488.19943	76.57893	1000.45563	728.04724	568.07190	964.89001	720.36298	453.51865	677.62885	702.06317	255.57875	597.76373	659.95404	296.51312	743.50000	647.16370	109.07133	693.71924	707.64508	111.13305	971.09412	425.76233	361.33395	898.87213	412.27402	481.10568	886.94189	418.92770	365.77267	910.43097	742.50073	523.43536	822.69611	735.72192	437.80685	951.25671	377.52328	900.81403	978.00208	382.87289	790.16534	939.94476	379.00775	745.47864	841.42432	375.65402	866.82880	877.04065	391.32739	756.14856	1000.65912	736.95215	844.86127	1048.69958	735.00269	714.54016	888.99011	740.22479	805.02667	942.74268	730.27228	679.59790	943.23828	428.13779	1094.73279	753.50903	519.18237	1102.19568	949.52881	682.70490	1088.65662	758.82257	600.92651	1096.77124	852.03076	564.44574	1598.72021	906.10571	397.06445	1556.70142	917.05219	745.72412	1551.05273	990.35455	561.22577	1514.15210	
4	0.060	938.20941	416.26047	570.94122	956.28967	417.01288	480.58795	889.52814	460.46008	110.22668	803.63306	515.32806	72.28333	996.81110	429.42053	40.00450	1040.52551	487.98080	75.96582	1016.28607	727.75476	575.76154	986.29779	720.71674	459.61493	711.78741	700.47461	244.49408	628.41992	657.74310	278.06781	789.81500	646.67926	104.19993	739.83075	706.64545	102.04779	950.40314	425.37845	360.90860	880.40033	412.50137	481.71768	866.43536	419.33716	366.77133	927.45239	743.62177	525.56830	845.10278	735.83215	435.21246	945.35455	377.37170	901.50366	970.66846	383.49347	789.84070	931.08063	377.91260	746.66254	836.36371	374.03720	870.43909	868.23407	390.50931	758.63971	1005.54169	736.62585	854.04144	1059.74158	735.37006	726.45032	894.84460	742.73151	809.42859	953.99524	734.37500	686.16669	942.14319	427.32611	1097.07178	752.57507	517.34406	1106.86096	947.16614	681.55426	1093.78296	757.82819	599.37354	1102.16248	848.74292	561.56976	1603.36853	905.88477	395.98022	1560.46875	912.41296	744.56641	1555.38623	988.26355	561.12280	1517.77991	
5	0.080	920.89282	416.09470	571.30341	936.43915	416.38885	480.38910	864.89703	460.64902	110.56729	778.59448	515.35834	72.89812	971.75476	429.37027	40.05132	1016.26044	488.76831	74.86614	1028.59521	728.39307	584.26440	1005.92450	720.79132	465.71579	747.40747	699.11078	229.99751	662.18225	654.52740	255.14764	840.06879	647.44775	97.73436	789.73035	707.10358	91.33810	928.83362	425.10620	360.69656	860.50385	412.95609	482.63409	844.83569	419.90659	367.90158	942.44830	743.79230	527.08734	867.04694	735.21588	430.91202	940.40173	377.53546	901.35419	962.24762	384.03647	789.15637	920.66730	379.58624	747.04865	829.65204	372.77359	874.27625	857.91174	390.23428	761.36908	1009.64972	736.42059	863.13550	1068.28015	738.68359	737.53949	900.35370	745.45300	814.77045	963.77863	738.26337	692.92487	941.02820	427.02887	1098.77344	751.83429	516.04126	1111.27295	944.78723	680.92206	1097.65552	756.37860	598.28607	1106.70959	847.97736	559.96631	1604.89160	905.76501	395.14185	1563.90112	908.33545	743.45233	1559.08887	986.18756	561.03229	1521.06860	
6	0.100	903.05835	416.12695	571.52618	916.52454	416.10587	480.36960	840.15283	460.80731	111.06506	754.02380	515.81360	73.12454	946.86743	429.50702	39.91976	991.16046	488.36447	74.49255	1038.71484	728.71332	591.95679	1023.63391	721.23907	472.01834	786.33228	698.25519	213.98135	699.64191	650.96545	229.11478	894.17999	650.52612	92.09711	842.51904	708.92639	80.51206	907.07281	424.82196	360.76950	840.53595	412.95142	483.67984	823.34583	419.88977	369.30234	955.02002	742.37396	528.12177	887.81366	734.57690	425.82816	934.49237	378.01135	901.02399	951.55988	383.95279	788.08240	909.40723	379.49646	747.60925	822.98370	373.05151	877.62231	847.19324	392.92868	764.38434	1011.69666	736.91028	870.51495	1074.87329	736.07190	746.99060	904.01385	748.99915	819.01135	971.34546	741.30383	699.20898	940.27985	426.63095	1099.81152	750.79541	515.33679	1114.57275	943.00836	680.31854	1100.72327	754.96765	597.65216	1110.25439	846.17853	558.44330	1607.12732	905.77899	394.32257	1567.05615	904.56787	742.43909	1561.85144	984.29553	561.00293	1523.86694	
7	0.120	885.25256	416.09067	571.59595	896.90204	415.89005	480.25815	815.89227	461.22589	111.37521	729.20221	515.94122	73.79425	921.67554	429.38574	39.86346	966.24268	488.17313	74.44061	1045.96655	728.89099	598.29785	1038.51184	722.24915	477.76236	827.73743	697.10168	196.42470	741.19489	646.90503	201.33043	949.15802	655.59021	87.14369	897.94562	712.21033	70.65520	885.64642	424.87573	360.82471	821.03864	412.56723	484.77161	802.13287	419.85999	370.48648	964.31683	739.75848	528.01392	907.18884	732.47614	419.73828	927.92426	378.42697	900.41205	942.04022	384.50037	786.89648	898.08075	379.78226	747.92053	815.93634	372.95053	880.52875	835.94452	392.28485	766.58319	1013.14050	736.91516	876.46918	1079.06885	741.13483	753.80603	906.23602	747.16742	823.14380	976.81091	744.18970	704.80029	938.42358	426.32709	1099.91858	749.58118	515.17352	1116.87170	941.22510	679.68433	1103.05359	753.29114	597.48914	1112.51733	844.54529	556.91022	1609.06665	906.02893	393.72018	1569.06836	901.15137	741.78107	1563.57080	982.45380	561.01715	1525.94800	
